<svg xmlns="http://www.w3.org/2000/svg" xmlns:xlink="http://www.w3.org/1999/xlink" contentStyleType="text/css" height="579px" preserveAspectRatio="none" style="width:1316px;height:579px;background:#FFFFFF;" version="1.1" viewBox="0 0 1316 579" width="1316px" zoomAndPan="magnify"><title>US06 &#8212; Valida&#231;&#227;o de Digita&#231;&#227;o em Tempo Real</title><defs/><g><text fill="#1570EF" font-family="Arial" font-size="15" font-weight="bold" lengthAdjust="spacing" textLength="398.4668" x="457.7245" y="33.9233">US06 &#8212; Valida&#231;&#227;o de Digita&#231;&#227;o em Tempo Real</text><ellipse cx="653.9579" cy="58.4609" fill="#000000" rx="10" ry="10" style="stroke:#222222;stroke-width:1.0;"/><rect fill="#1570EF" height="35.1328" rx="10" ry="10" style="stroke:#1570EF;stroke-width:0.5;" width="237.2803" x="535.3177" y="132.4609"/><text fill="#FFFFFF" font-family="Arial" font-size="13" font-weight="bold" lengthAdjust="spacing" textLength="217.2803" x="545.3177" y="154.5278">Interceptar tecla pressionada</text><polygon fill="#FFFFFF" points="108.0342,187.5938,259.8481,187.5938,271.8481,199.5938,259.8481,211.5938,108.0342,211.5938,96.0342,199.5938,108.0342,187.5938" style="stroke:#333333;stroke-width:0.5;"/><text fill="#777777" font-family="Arial" font-size="11" lengthAdjust="spacing" textLength="29.3369" x="187.9412" y="221.8042">[Sim]</text><text fill="#555555" font-family="Arial" font-size="11" font-style="italic" lengthAdjust="spacing" textLength="151.814" x="108.0342" y="203.4019">&#201; WASD ou seta direcional?</text><rect fill="#1570EF" height="35.1328" rx="10" ry="10" style="stroke:#1570EF;stroke-width:0.5;" width="345.8823" x="11" y="244.3984"/><text fill="#FFFFFF" font-family="Arial" font-size="13" font-weight="bold" lengthAdjust="spacing" textLength="325.8823" x="21" y="266.4653">Mover personagem sem penalidade na frase</text><polygon fill="#FFFFFF" points="593.1917,187.5938,648.6589,187.5938,660.6589,199.5938,648.6589,211.5938,593.1917,211.5938,581.1917,199.5938,593.1917,187.5938" style="stroke:#333333;stroke-width:0.5;"/><text fill="#777777" font-family="Arial" font-size="11" lengthAdjust="spacing" textLength="29.3369" x="624.9253" y="221.8042">[Sim]</text><text fill="#555555" font-family="Arial" font-size="11" font-style="italic" lengthAdjust="spacing" textLength="55.4673" x="593.1917" y="203.4019">&#201; Espa&#231;o?</text><text fill="#777777" font-family="Arial" font-size="11" lengthAdjust="spacing" textLength="30.2822" x="660.6589" y="196.9995">[N&#227;o]</text><polygon fill="#FFFFFF" points="515.5364,244.3984,726.3142,244.3984,738.3142,256.3984,726.3142,268.3984,515.5364,268.3984,503.5364,256.3984,515.5364,244.3984" style="stroke:#333333;stroke-width:0.5;"/><text fill="#555555" font-family="Arial" font-size="11" font-style="italic" lengthAdjust="spacing" textLength="210.7778" x="515.5364" y="260.2065">Diretriz espera espa&#231;o nessa posi&#231;&#227;o?</text><text fill="#777777" font-family="Arial" font-size="11" lengthAdjust="spacing" textLength="29.3369" x="474.1995" y="253.8042">[Sim]</text><text fill="#777777" font-family="Arial" font-size="11" lengthAdjust="spacing" textLength="30.2822" x="738.3142" y="253.8042">[N&#227;o]</text><rect fill="#1570EF" height="35.1328" rx="10" ry="10" style="stroke:#1570EF;stroke-width:0.5;" width="253.3081" x="366.8823" y="278.3984"/><text fill="#FFFFFF" font-family="Arial" font-size="13" font-weight="bold" lengthAdjust="spacing" textLength="233.3081" x="376.8823" y="300.4653">Separar termo e avan&#231;ar cursor</text><rect fill="#1570EF" height="35.1328" rx="10" ry="10" style="stroke:#1570EF;stroke-width:0.5;" width="177.6504" x="659.489" y="278.3984"/><text fill="#FFFFFF" font-family="Arial" font-size="13" font-weight="bold" lengthAdjust="spacing" textLength="157.6504" x="669.489" y="300.4653">Registrar erro (US08)</text><polygon fill="#FFFFFF" points="620.9253,319.5313,632.9253,331.5313,620.9253,343.5313,608.9253,331.5313,620.9253,319.5313" style="stroke:#333333;stroke-width:0.5;"/><polygon fill="#FFFFFF" points="994.6799,226.7949,1156.613,226.7949,1168.613,238.7949,1156.613,250.7949,994.6799,250.7949,982.6799,238.7949,994.6799,226.7949" style="stroke:#333333;stroke-width:0.5;"/><text fill="#555555" font-family="Arial" font-size="11" font-style="italic" lengthAdjust="spacing" textLength="161.9331" x="994.6799" y="242.603">Caractere igual ao esperado?</text><text fill="#777777" font-family="Arial" font-size="11" lengthAdjust="spacing" textLength="29.3369" x="953.343" y="236.2007">[Sim]</text><text fill="#777777" font-family="Arial" font-size="11" lengthAdjust="spacing" textLength="30.2822" x="1168.613" y="236.2007">[N&#227;o]</text><rect fill="#1570EF" height="35.1328" rx="10" ry="10" style="stroke:#1570EF;stroke-width:0.5;" width="130.4302" x="897.9873" y="260.7949"/><text fill="#FFFFFF" font-family="Arial" font-size="13" font-weight="bold" lengthAdjust="spacing" textLength="110.4302" x="907.9873" y="282.8618">Avan&#231;ar cursor</text><rect fill="#1570EF" height="35.1328" rx="10" ry="10" style="stroke:#1570EF;stroke-width:0.5;" width="232.126" x="847.1394" y="330.9277"/><text fill="#FFFFFF" font-family="Arial" font-size="13" font-weight="bold" lengthAdjust="spacing" textLength="212.126" x="857.1394" y="352.9946">Tocar som de tecla mec&#226;nica</text><rect fill="#1570EF" height="35.1328" rx="10" ry="10" style="stroke:#1570EF;stroke-width:0.5;" width="177.6504" x="1099.2654" y="260.7949"/><text fill="#FFFFFF" font-family="Arial" font-size="13" font-weight="bold" lengthAdjust="spacing" textLength="157.6504" x="1109.2654" y="282.8618">Registrar erro (US08)</text><polygon fill="#FFFFFF" points="1075.6465,372.0605,1087.6465,384.0605,1075.6465,396.0605,1063.6465,384.0605,1075.6465,372.0605" style="stroke:#333333;stroke-width:0.5;"/><polygon fill="#FFFFFF" points="653.9579,88.4609,665.9579,100.4609,653.9579,112.4609,641.9579,100.4609,653.9579,88.4609" style="stroke:#333333;stroke-width:0.5;"/><polygon fill="#FFFFFF" points="603.3729,436.0605,704.5428,436.0605,716.5428,448.0605,704.5428,460.0605,603.3729,460.0605,591.3729,448.0605,603.3729,436.0605" style="stroke:#333333;stroke-width:0.5;"/><text fill="#777777" font-family="Arial" font-size="11" lengthAdjust="spacing" textLength="29.3369" x="657.9579" y="470.271">[Sim]</text><text fill="#555555" font-family="Arial" font-size="11" font-style="italic" lengthAdjust="spacing" textLength="101.1699" x="603.3729" y="451.8687">Diretriz completa?</text><text fill="#777777" font-family="Arial" font-size="11" lengthAdjust="spacing" textLength="30.2822" x="716.5428" y="445.4663">[N&#227;o]</text><rect fill="#1570EF" height="35.1328" rx="10" ry="10" style="stroke:#1570EF;stroke-width:0.5;" width="232.0942" x="537.9108" y="491.771"/><text fill="#FFFFFF" font-family="Arial" font-size="13" font-weight="bold" lengthAdjust="spacing" textLength="212.0942" x="547.9108" y="513.8379">Enviar para avalia&#231;&#227;o (US07)</text><ellipse cx="653.9579" cy="557.9038" fill="none" rx="11" ry="11" style="stroke:#222222;stroke-width:1.0;"/><ellipse cx="653.9579" cy="557.9038" fill="#222222" rx="6" ry="6" style="stroke:#222222;stroke-width:1.0;"/><line style="stroke:#555555;stroke-width:1.0;" x1="503.5364" x2="493.5364" y1="256.3984" y2="256.3984"/><line style="stroke:#555555;stroke-width:1.0;" x1="493.5364" x2="493.5364" y1="256.3984" y2="278.3984"/><polygon fill="#555555" points="489.5364,268.3984,493.5364,278.3984,497.5364,268.3984,493.5364,272.3984" style="stroke:#555555;stroke-width:1.0;"/><line style="stroke:#555555;stroke-width:1.0;" x1="738.3142" x2="748.3142" y1="256.3984" y2="256.3984"/><line style="stroke:#555555;stroke-width:1.0;" x1="748.3142" x2="748.3142" y1="256.3984" y2="278.3984"/><polygon fill="#555555" points="744.3142,268.3984,748.3142,278.3984,752.3142,268.3984,748.3142,272.3984" style="stroke:#555555;stroke-width:1.0;"/><line style="stroke:#555555;stroke-width:1.0;" x1="493.5364" x2="493.5364" y1="313.5313" y2="331.5313"/><line style="stroke:#555555;stroke-width:1.0;" x1="493.5364" x2="608.9253" y1="331.5313" y2="331.5313"/><polygon fill="#555555" points="598.9253,327.5313,608.9253,331.5313,598.9253,335.5313,602.9253,331.5313" style="stroke:#555555;stroke-width:1.0;"/><line style="stroke:#555555;stroke-width:1.0;" x1="748.3142" x2="748.3142" y1="313.5313" y2="331.5313"/><line style="stroke:#555555;stroke-width:1.0;" x1="748.3142" x2="632.9253" y1="331.5313" y2="331.5313"/><polygon fill="#555555" points="642.9253,327.5313,632.9253,331.5313,642.9253,335.5313,638.9253,331.5313" style="stroke:#555555;stroke-width:1.0;"/><line style="stroke:#555555;stroke-width:1.0;" x1="963.2024" x2="963.2024" y1="295.9277" y2="330.9277"/><polygon fill="#555555" points="959.2024,320.9277,963.2024,330.9277,967.2024,320.9277,963.2024,324.9277" style="stroke:#555555;stroke-width:1.0;"/><line style="stroke:#555555;stroke-width:1.0;" x1="982.6799" x2="963.2024" y1="238.7949" y2="238.7949"/><line style="stroke:#555555;stroke-width:1.0;" x1="963.2024" x2="963.2024" y1="238.7949" y2="260.7949"/><polygon fill="#555555" points="959.2024,250.7949,963.2024,260.7949,967.2024,250.7949,963.2024,254.7949" style="stroke:#555555;stroke-width:1.0;"/><line style="stroke:#555555;stroke-width:1.0;" x1="1168.613" x2="1188.0906" y1="238.7949" y2="238.7949"/><line style="stroke:#555555;stroke-width:1.0;" x1="1188.0906" x2="1188.0906" y1="238.7949" y2="260.7949"/><polygon fill="#555555" points="1184.0906,250.7949,1188.0906,260.7949,1192.0906,250.7949,1188.0906,254.7949" style="stroke:#555555;stroke-width:1.0;"/><line style="stroke:#555555;stroke-width:1.0;" x1="963.2024" x2="963.2024" y1="366.0605" y2="384.0605"/><line style="stroke:#555555;stroke-width:1.0;" x1="963.2024" x2="1063.6465" y1="384.0605" y2="384.0605"/><polygon fill="#555555" points="1053.6465,380.0605,1063.6465,384.0605,1053.6465,388.0605,1057.6465,384.0605" style="stroke:#555555;stroke-width:1.0;"/><line style="stroke:#555555;stroke-width:1.0;" x1="1188.0906" x2="1188.0906" y1="295.9277" y2="384.0605"/><line style="stroke:#555555;stroke-width:1.0;" x1="1188.0906" x2="1087.6465" y1="384.0605" y2="384.0605"/><polygon fill="#555555" points="1097.6465,380.0605,1087.6465,384.0605,1097.6465,388.0605,1093.6465,384.0605" style="stroke:#555555;stroke-width:1.0;"/><line style="stroke:#555555;stroke-width:1.0;" x1="183.9412" x2="183.9412" y1="211.5938" y2="244.3984"/><polygon fill="#555555" points="179.9412,234.3984,183.9412,244.3984,187.9412,234.3984,183.9412,238.3984" style="stroke:#555555;stroke-width:1.0;"/><line style="stroke:#555555;stroke-width:1.0;" x1="183.9412" x2="183.9412" y1="279.5313" y2="416.0605"/><polygon fill="#555555" points="179.9412,406.0605,183.9412,416.0605,187.9412,406.0605,183.9412,410.0605" style="stroke:#555555;stroke-width:1.0;"/><line style="stroke:#555555;stroke-width:1.0;" x1="620.9253" x2="620.9253" y1="211.5938" y2="244.3984"/><polygon fill="#555555" points="616.9253,234.3984,620.9253,244.3984,624.9253,234.3984,620.9253,238.3984" style="stroke:#555555;stroke-width:1.0;"/><line style="stroke:#555555;stroke-width:1.0;" x1="620.9253" x2="620.9253" y1="343.5313" y2="416.0605"/><polygon fill="#555555" points="616.9253,406.0605,620.9253,416.0605,624.9253,406.0605,620.9253,410.0605" style="stroke:#555555;stroke-width:1.0;"/><line style="stroke:#555555;stroke-width:1.0;" x1="271.8481" x2="581.1917" y1="199.5938" y2="199.5938"/><polygon fill="#555555" points="571.1917,195.5938,581.1917,199.5938,571.1917,203.5938,575.1917,199.5938" style="stroke:#555555;stroke-width:1.0;"/><line style="stroke:#555555;stroke-width:1.0;" x1="653.9579" x2="653.9579" y1="167.5938" y2="172.5938"/><line style="stroke:#555555;stroke-width:1.0;" x1="653.9579" x2="183.9412" y1="172.5938" y2="172.5938"/><line style="stroke:#555555;stroke-width:1.0;" x1="183.9412" x2="183.9412" y1="172.5938" y2="187.5938"/><polygon fill="#555555" points="179.9412,177.5938,183.9412,187.5938,187.9412,177.5938,183.9412,181.5938" style="stroke:#555555;stroke-width:1.0;"/><line style="stroke:#555555;stroke-width:1.0;" x1="660.6589" x2="1075.6465" y1="199.5938" y2="199.5938"/><line style="stroke:#555555;stroke-width:1.0;" x1="1075.6465" x2="1075.6465" y1="199.5938" y2="226.7949"/><polygon fill="#555555" points="1071.6465,216.7949,1075.6465,226.7949,1079.6465,216.7949,1075.6465,220.7949" style="stroke:#555555;stroke-width:1.0;"/><line style="stroke:#555555;stroke-width:1.0;" x1="1075.6465" x2="1075.6465" y1="396.0605" y2="416.0605"/><polygon fill="#555555" points="1071.6465,406.0605,1075.6465,416.0605,1079.6465,406.0605,1075.6465,410.0605" style="stroke:#555555;stroke-width:1.0;"/><line style="stroke:#555555;stroke-width:1.0;" x1="183.9412" x2="1075.6465" y1="416.0605" y2="416.0605"/><line style="stroke:#555555;stroke-width:1.0;" x1="653.9579" x2="653.9579" y1="112.4609" y2="132.4609"/><polygon fill="#555555" points="649.9579,122.4609,653.9579,132.4609,657.9579,122.4609,653.9579,126.4609" style="stroke:#555555;stroke-width:1.0;"/><line style="stroke:#555555;stroke-width:1.0;" x1="716.5428" x2="1290.9158" y1="448.0605" y2="448.0605"/><polygon fill="#555555" points="1286.9158,286.3613,1290.9158,276.3613,1294.9158,286.3613,1290.9158,282.3613" style="stroke:#555555;stroke-width:1.0;"/><line style="stroke:#555555;stroke-width:1.0;" x1="1290.9158" x2="1290.9158" y1="100.4609" y2="448.0605"/><line style="stroke:#555555;stroke-width:1.0;" x1="1290.9158" x2="665.9579" y1="100.4609" y2="100.4609"/><polygon fill="#555555" points="675.9579,96.4609,665.9579,100.4609,675.9579,104.4609,671.9579,100.4609" style="stroke:#555555;stroke-width:1.0;"/><line style="stroke:#555555;stroke-width:1.0;" x1="653.9579" x2="653.9579" y1="416.0605" y2="436.0605"/><polygon fill="#555555" points="649.9579,426.0605,653.9579,436.0605,657.9579,426.0605,653.9579,430.0605" style="stroke:#555555;stroke-width:1.0;"/><line style="stroke:#555555;stroke-width:1.0;" x1="653.9579" x2="653.9579" y1="68.4609" y2="88.4609"/><polygon fill="#555555" points="649.9579,78.4609,653.9579,88.4609,657.9579,78.4609,653.9579,82.4609" style="stroke:#555555;stroke-width:1.0;"/><line style="stroke:#555555;stroke-width:1.0;" x1="653.9579" x2="653.9579" y1="460.0605" y2="491.771"/><polygon fill="#555555" points="649.9579,481.771,653.9579,491.771,657.9579,481.771,653.9579,485.771" style="stroke:#555555;stroke-width:1.0;"/><line style="stroke:#555555;stroke-width:1.0;" x1="653.9579" x2="653.9579" y1="526.9038" y2="546.9038"/><polygon fill="#555555" points="649.9579,536.9038,653.9579,546.9038,657.9579,536.9038,653.9579,540.9038" style="stroke:#555555;stroke-width:1.0;"/><!--SRC=[fLInRXf14EtvYf7IG0Un295THCI0b28kE2SfeXIJtU4OUM_tjBk0x2fj-dn1KlX3-1D_IMQFCvp2dLna97HYvyrxRsRdBjonBT5Z0PfMk35nuMoymO9WwXbDBnppOOtQxTZci48Jg96PUkzsryuu3w_6LVoRJAGrO5956o3Z1uBHg9bIaRSSxz-ZkikzsrXTaup6a-5yqOPqNfD_2TMmiwYY0vF5UqFmtHdT1QWiNxHaPuo5i_hCUQVUSq6pWOigki6DFixdVWuzjCCH3QiNa9rNaKNqpvh3Abf0ysExPv1RZePE4kEsLDVrBGzpz9Oyl1xsOiB3fspu1fv-_8BFqfR6_UF-ZvDTXXddqkdXBmav5QM39QMLJYtqF9M4iGTm-S56yefAEOP8oY2Kda9WPr7ZbI1u1VtzJ_WopMRWDX0e8cZsf1B4l1j0N9E5_jUCYsy3mGldHxSLaoNv891Sz8FyIhALHt5d4LOU0oLwahUfbfY7KYoxDig4c8bezFm058GQqoF1mOfTSUq2L_ssbOkdZD8OKu- -a9a0Rj7k7-L0RSIclwfmoOmKtWZDgN99EOUOQabULkZBpDyEQhpLlEgrrIN3roAeH4-sBj-W0NIrTTrbSjfcIivldPB3uD9tghwbWjJ-jsM5_-cyUXxM0NPhbfqw3LgveZHot-AMmv4Th8j7uvTpksKHICDDCpLSRrqIcuXOYAxy2m00]--></g></svg>